<svg version="1.2" xmlns="http://www.w3.org/2000/svg" viewBox="0 0 90 90" width="256" height="256">
	<title>NTNU hovedlogo - farger - bredde</title>
	<style>
		.s0 { fill: #00509e } 
	</style>
	<g id="g">
		<path id="logo-firkant" class="s0" d="m68.2 1h-44.2c-12.1 0-22 9.9-22 22v44.2c0 12.1 9.9 22 22 22h44.2c12.1 0 22-9.9 22-22v-44.2c0-12.1-9.9-22-22-22zm0 66.2h-44.2v-44.2h44.2z"/>
		<path id="logo-runding" class="s0" d="m46 26.9c-10 0-18.1 8.1-18.1 18.1 0 10 8.1 18 18.1 18 9.9 0 18-8 18-18 0-10-8.1-18.1-18-18.1z"/>
	</g>
</svg>